<svg width="201" height="201" viewBox="0 0 201 201" fill="none" xmlns="http://www.w3.org/2000/svg">
<path d="M97.1194 0.76123H48.5597C21.7409 0.76123 4.57764e-05 22.5021 4.57764e-05 49.3209V49.3209C4.57764e-05 76.1397 21.741 97.8806 48.5597 97.8806H63.1194C81.8971 97.8806 97.1194 82.6582 97.1194 63.8806V0.76123Z" fill="black"/>
<path d="M0 156.555C0 127.464 23.5833 103.881 52.6749 103.881H97.1193V201H0V156.555Z" fill="black"/>
<path d="M200.239 152.44C200.239 125.622 178.498 103.881 151.679 103.881H103.119V201H151.679C178.498 201 200.239 179.259 200.239 152.44V152.44Z" fill="black"/>
<path d="M103.119 0.76123H200.239V45.2057C200.239 74.2972 176.655 97.8806 147.564 97.8806H103.119V0.76123Z" fill="black"/>
</svg>
