<svg width="205" height="202" viewBox="0 0 205 202" fill="none" xmlns="http://www.w3.org/2000/svg">
<path d="M97.1194 0.76123H48.5597C21.7409 0.76123 4.57764e-05 22.5021 4.57764e-05 49.3209V49.3209C4.57764e-05 76.1397 21.741 97.8806 48.5597 97.8806H63.1194C81.8971 97.8806 97.1194 82.6582 97.1194 63.8806V0.76123Z" fill="black"/>
<path d="M103.119 151.559C103.119 124.74 81.3785 103 54.5597 103H6.00005V200.119H54.5597C81.3785 200.119 103.119 178.378 103.119 151.559V151.559Z" fill="black"/>
<path d="M204.119 156.674C204.119 127.583 180.536 104 151.445 104H107V201.119H204.119V156.674Z" fill="black"/>
<path d="M103.119 0.76123H200.239V45.2057C200.239 74.2972 176.655 97.8806 147.564 97.8806H103.119V0.76123Z" fill="black"/>
</svg>
