<svg width="205" height="202" viewBox="0 0 205 202" fill="none" xmlns="http://www.w3.org/2000/svg">
<path d="M97.1194 0.76123H48.5597C21.7409 0.76123 4.57764e-05 22.5021 4.57764e-05 49.3209V49.3209C4.57764e-05 76.1397 21.741 97.8806 48.5597 97.8806H63.1194C81.8971 97.8806 97.1194 82.6582 97.1194 63.8806V0.76123Z" fill="black"/>
<path d="M103.119 151.559C103.119 124.74 81.3785 103 54.5597 103H6.00005V200.119H54.5597C81.3785 200.119 103.119 178.378 103.119 151.559V151.559Z" fill="black"/>
<path d="M204.119 156.674C204.119 127.583 180.536 104 151.445 104H107V201.119H204.119V156.674Z" fill="black"/>
<path d="M134.027 172.744L128.879 160.864L158.084 134.431H179.171L134.027 172.744ZM119.474 187V113.74H134.918V187H119.474ZM159.866 187L138.383 160.666L149.372 151.954L178.577 187H159.866Z" fill="white"/>
<path d="M103.119 0.76123H200.239V45.2057C200.239 74.2972 176.655 97.8806 147.564 97.8806H103.119V0.76123Z" fill="black"/>
<path d="M54.313 83.9895C49.297 83.9895 44.743 83.4615 40.651 82.4055C36.625 81.3495 32.995 79.8645 29.761 77.9505C26.593 75.9705 23.689 73.6605 21.049 71.0205L30.256 58.7445C34.414 62.9025 38.572 65.8065 42.73 67.4565C46.954 69.0405 51.145 69.8325 55.303 69.8325C57.217 69.8325 59.065 69.6345 60.847 69.2385C62.695 68.7765 64.18 68.0505 65.302 67.0605C66.424 66.0705 66.985 64.7835 66.985 63.1995C66.985 62.1435 66.688 61.2525 66.094 60.5265C65.5 59.7345 64.675 59.0745 63.619 58.5465C62.563 58.0185 61.309 57.5565 59.857 57.1605C58.471 56.7645 56.986 56.4345 55.402 56.1705C53.884 55.8405 52.267 55.5435 50.551 55.2795C46.393 54.6195 42.697 53.6955 39.463 52.5075C36.295 51.3195 33.622 49.8345 31.444 48.0525C29.266 46.2705 27.583 44.1915 26.395 41.8155C25.273 39.4395 24.712 36.7335 24.712 33.6975C24.712 30.4635 25.471 27.5265 26.989 24.8865C28.573 22.1805 30.718 19.9035 33.424 18.0555C36.13 16.1415 39.265 14.6895 42.829 13.6995C46.393 12.6435 50.155 12.1155 54.115 12.1155C58.867 12.1155 62.992 12.5775 66.49 13.5015C70.054 14.4255 73.156 15.7455 75.796 17.4615C78.436 19.1115 80.647 21.0585 82.429 23.3025L73.024 33.9945C71.374 32.3445 69.526 30.9585 67.48 29.8365C65.434 28.7145 63.256 27.8565 60.946 27.2625C58.702 26.6685 56.425 26.3715 54.115 26.3715C51.805 26.3715 49.759 26.6355 47.977 27.1635C46.195 27.6255 44.776 28.3185 43.72 29.2425C42.664 30.1665 42.136 31.3215 42.136 32.7075C42.136 33.8955 42.565 34.9185 43.423 35.7765C44.281 36.5685 45.403 37.2615 46.789 37.8555C48.241 38.4495 49.858 38.9445 51.64 39.3405C53.422 39.6705 55.204 39.9675 56.986 40.2315C60.748 40.8255 64.279 41.6175 67.579 42.6075C70.879 43.5315 73.783 44.7855 76.291 46.3695C78.799 47.8875 80.746 49.8675 82.132 52.3095C83.584 54.6855 84.31 57.6555 84.31 61.2195C84.31 66.0375 82.99 70.1625 80.35 73.5945C77.776 76.9605 74.245 79.5345 69.757 81.3165C65.269 83.0985 60.121 83.9895 54.313 83.9895Z" fill="white"/>
<path d="M16.078 184V114.7H48.253C53.863 114.7 58.945 115.591 63.499 117.373C68.053 119.089 71.947 121.531 75.181 124.699C78.481 127.867 80.989 131.563 82.705 135.787C84.421 139.945 85.279 144.466 85.279 149.35C85.279 154.3 84.421 158.887 82.705 163.111C80.989 167.335 78.481 170.998 75.181 174.1C71.947 177.202 68.053 179.644 63.499 181.426C58.945 183.142 53.863 184 48.253 184H16.078ZM32.908 172.516L30.631 169.15H47.758C51.058 169.15 53.962 168.655 56.47 167.665C58.978 166.609 61.057 165.19 62.707 163.408C64.423 161.626 65.743 159.547 66.667 157.171C67.591 154.795 68.053 152.188 68.053 149.35C68.053 146.578 67.591 144.004 66.667 141.628C65.743 139.186 64.423 137.074 62.707 135.292C61.057 133.51 58.978 132.124 56.47 131.134C53.962 130.078 51.058 129.55 47.758 129.55H30.334L32.908 126.382V172.516Z" fill="white"/>
<path d="M148.629 82.9895C142.821 82.9895 137.541 82.0985 132.789 80.3165C128.103 78.5345 123.978 76.0265 120.414 72.7925C116.916 69.4925 114.21 65.6645 112.296 61.3085C110.382 56.9525 109.425 52.2005 109.425 47.0525C109.425 41.9045 110.382 37.1525 112.296 32.7965C114.21 28.4405 116.916 24.6455 120.414 21.4115C123.978 18.1115 128.103 15.5705 132.789 13.7885C137.541 12.0065 142.788 11.1155 148.53 11.1155C154.206 11.1155 159.42 12.0065 164.172 13.7885C168.924 15.5705 173.049 18.1115 176.547 21.4115C180.045 24.6455 182.751 28.4405 184.665 32.7965C186.579 37.1525 187.536 41.9045 187.536 47.0525C187.536 52.1345 186.579 56.8865 184.665 61.3085C182.751 65.6645 180.045 69.4925 176.547 72.7925C173.049 76.0265 168.924 78.5345 164.172 80.3165C159.42 82.0985 154.239 82.9895 148.629 82.9895ZM148.53 67.1495C151.698 67.1495 154.602 66.6545 157.242 65.6645C159.948 64.6745 162.291 63.2885 164.271 61.5065C166.251 59.6585 167.769 57.5135 168.825 55.0715C169.881 52.6295 170.409 49.9565 170.409 47.0525C170.409 44.1485 169.881 41.4755 168.825 39.0335C167.769 36.5915 166.251 34.4795 164.271 32.6975C162.291 30.8495 159.948 29.4305 157.242 28.4405C154.602 27.4505 151.698 26.9555 148.53 26.9555C145.362 26.9555 142.425 27.4505 139.719 28.4405C137.079 29.4305 134.736 30.8495 132.69 32.6975C130.71 34.5455 129.192 36.6905 128.136 39.1325C127.146 41.5745 126.651 44.2145 126.651 47.0525C126.651 49.9565 127.146 52.6295 128.136 55.0715C129.192 57.5135 130.71 59.6585 132.69 61.5065C134.736 63.2885 137.079 64.6745 139.719 65.6645C142.425 66.6545 145.362 67.1495 148.53 67.1495Z" fill="white"/>
</svg>
